# xmcd
#
# Track frame offsets:
#	150
#	17853
#	37633
#	55735
#	76422
#	98008
#	121929
#	139857
#	156237
#	174455
#	190224
#	201230
#	225145
#	236972
#	258862
#	274084
#	290768
#
# Disc length: 4075 seconds
#
# Revision: 1
# Processed by: cddbd v1.4PL0 Copyright (c) Steve Scherf et al.
# Submitted via: audiograbber 1.81.02
#
DISCID=e20fe911
DTITLE=Muse - Showbiz
DYEAR=1900
DGENRE=Pop
TTITLE0=Sunburn
TTITLE1=S Howb IZz - Muse. Muscle Museum
TTITLE2=S Howb IZz - Muse Fillip
TTITLE3=Showbiz - Muse- Falling Down
TTITLE4=Cave
TTITLE5=Muse @ - Showbiz
TTITLE6=Unintended
TTITLE7=S Howb IZz - Muse Uno
TTITLE8=S Howb IZz - Muse Sober
TTITLE9=S Howb IZz - Muse Escape
TTITLE10=S Howb IZz - Muse Overdue
TTITLE11=Hate This And I'll Love You
TTITLE12=Bedroom Acoustics
TTITLE13=Dark Shines
TTITLE14=Hyper Music
TTITLE15=Micro Cuts
TTITLE16=Plug In Baby (Studio Version)
EXTD=
EXTT0=
EXTT1=
EXTT2=
EXTT3=
EXTT4=
EXTT5=
EXTT6=
EXTT7=
EXTT8=
EXTT9=
EXTT10=
EXTT11=
EXTT12=
EXTT13=
EXTT14=
EXTT15=
EXTT16=
PLAYORDER=
